<svg width="91" height="15" viewBox="0 0 91 15" fill="none" xmlns="http://www.w3.org/2000/svg">
<path d="M7.9746 0.847022L9.55195 4.44468C9.61128 4.58007 9.70586 4.69706 9.82583 4.78343C9.9458 4.8698 10.0868 4.92238 10.234 4.93569L14.0766 5.28022C14.5113 5.34351 14.6848 5.87671 14.3695 6.18374L11.475 8.61538C11.2406 8.81226 11.134 9.12163 11.1984 9.42046L12.0398 13.3591C12.1137 13.7916 11.6601 14.122 11.2711 13.9169L7.91718 11.9529C7.79069 11.8786 7.64667 11.8395 7.49999 11.8395C7.35332 11.8395 7.2093 11.8786 7.08281 11.9529L3.7289 13.9158C3.34101 14.1197 2.88632 13.7904 2.96015 13.358L3.80156 9.41929C3.86484 9.12046 3.75937 8.81108 3.52499 8.61421L0.629291 6.18491C0.315228 5.87905 0.488666 5.34468 0.922259 5.2814L4.76484 4.93687C4.91206 4.92356 5.05301 4.87097 5.17298 4.7846C5.29295 4.69823 5.38754 4.58124 5.44687 4.44585L7.02421 0.848193C7.21992 0.454444 7.78007 0.454444 7.9746 0.847022Z" fill="#FDD835"/>
<path d="M7.85977 4.66045L7.59258 2.00967C7.58203 1.86201 7.55156 1.60889 7.78828 1.60889C7.97578 1.60889 8.07773 1.99912 8.07773 1.99912L8.8793 4.12725C9.18164 4.93701 9.05742 5.21475 8.76562 5.37881C8.43047 5.56631 7.93594 5.41982 7.85977 4.66045Z" fill="#FFFF8D"/>
<path d="M11.1656 8.38018L13.4648 6.58603C13.5785 6.49111 13.7836 6.33994 13.6195 6.16767C13.4895 6.03174 13.1379 6.22744 13.1379 6.22744L11.1258 7.01377C10.5258 7.22119 10.1273 7.52822 10.0922 7.91494C10.0465 8.43057 10.5094 8.82783 11.1656 8.38018Z" fill="#F4B400"/>
<path d="M26.9746 0.847022L28.5519 4.44468C28.6113 4.58007 28.7059 4.69706 28.8258 4.78343C28.9458 4.8698 29.0868 4.92238 29.234 4.93569L33.0766 5.28022C33.5113 5.34351 33.6848 5.87671 33.3695 6.18374L30.475 8.61538C30.2406 8.81226 30.134 9.12163 30.1984 9.42046L31.0398 13.3591C31.1137 13.7916 30.6601 14.122 30.2711 13.9169L26.9172 11.9529C26.7907 11.8786 26.6467 11.8395 26.5 11.8395C26.3533 11.8395 26.2093 11.8786 26.0828 11.9529L22.7289 13.9158C22.341 14.1197 21.8863 13.7904 21.9602 13.358L22.8016 9.41929C22.8648 9.12046 22.7594 8.81108 22.525 8.61421L19.6293 6.18491C19.3152 5.87905 19.4887 5.34468 19.9223 5.2814L23.7648 4.93687C23.9121 4.92356 24.053 4.87097 24.173 4.7846C24.293 4.69823 24.3875 4.58124 24.4469 4.44585L26.0242 0.848193C26.2199 0.454444 26.7801 0.454444 26.9746 0.847022Z" fill="#FDD835"/>
<path d="M26.8598 4.66045L26.5926 2.00967C26.582 1.86201 26.5516 1.60889 26.7883 1.60889C26.9758 1.60889 27.0777 1.99912 27.0777 1.99912L27.8793 4.12725C28.1816 4.93701 28.0574 5.21475 27.7656 5.37881C27.4305 5.56631 26.9359 5.41982 26.8598 4.66045Z" fill="#FFFF8D"/>
<path d="M30.1656 8.38018L32.4648 6.58603C32.5785 6.49111 32.7836 6.33994 32.6195 6.16767C32.4895 6.03174 32.1379 6.22744 32.1379 6.22744L30.1258 7.01377C29.5258 7.22119 29.1273 7.52822 29.0922 7.91494C29.0465 8.43057 29.5094 8.82783 30.1656 8.38018Z" fill="#F4B400"/>
<path d="M45.9746 0.847022L47.5519 4.44468C47.6113 4.58007 47.7059 4.69706 47.8258 4.78343C47.9458 4.8698 48.0868 4.92238 48.234 4.93569L52.0766 5.28022C52.5113 5.34351 52.6848 5.87671 52.3695 6.18374L49.475 8.61538C49.2406 8.81226 49.134 9.12163 49.1984 9.42046L50.0398 13.3591C50.1137 13.7916 49.6601 14.122 49.2711 13.9169L45.9172 11.9529C45.7907 11.8786 45.6467 11.8395 45.5 11.8395C45.3533 11.8395 45.2093 11.8786 45.0828 11.9529L41.7289 13.9158C41.341 14.1197 40.8863 13.7904 40.9602 13.358L41.8016 9.41929C41.8648 9.12046 41.7594 8.81108 41.525 8.61421L38.6293 6.18491C38.3152 5.87905 38.4887 5.34468 38.9223 5.2814L42.7648 4.93687C42.9121 4.92356 43.053 4.87097 43.173 4.7846C43.293 4.69823 43.3875 4.58124 43.4469 4.44585L45.0242 0.848193C45.2199 0.454444 45.7801 0.454444 45.9746 0.847022Z" fill="#FDD835"/>
<path d="M45.8598 4.66045L45.5926 2.00967C45.582 1.86201 45.5516 1.60889 45.7883 1.60889C45.9758 1.60889 46.0777 1.99912 46.0777 1.99912L46.8793 4.12725C47.1816 4.93701 47.0574 5.21475 46.7656 5.37881C46.4305 5.56631 45.9359 5.41982 45.8598 4.66045Z" fill="#FFFF8D"/>
<path d="M49.1656 8.38018L51.4648 6.58603C51.5785 6.49111 51.7836 6.33994 51.6195 6.16767C51.4895 6.03174 51.1379 6.22744 51.1379 6.22744L49.1258 7.01377C48.5258 7.22119 48.1273 7.52822 48.0922 7.91494C48.0465 8.43057 48.5094 8.82783 49.1656 8.38018Z" fill="#F4B400"/>
<path d="M64.9746 0.847022L66.5519 4.44468C66.6113 4.58007 66.7059 4.69706 66.8258 4.78343C66.9458 4.8698 67.0868 4.92238 67.234 4.93569L71.0766 5.28022C71.5113 5.34351 71.6848 5.87671 71.3695 6.18374L68.475 8.61538C68.2406 8.81226 68.134 9.12163 68.1984 9.42046L69.0398 13.3591C69.1137 13.7916 68.6601 14.122 68.2711 13.9169L64.9172 11.9529C64.7907 11.8786 64.6467 11.8395 64.5 11.8395C64.3533 11.8395 64.2093 11.8786 64.0828 11.9529L60.7289 13.9158C60.341 14.1197 59.8863 13.7904 59.9602 13.358L60.8016 9.41929C60.8648 9.12046 60.7594 8.81108 60.525 8.61421L57.6293 6.18491C57.3152 5.87905 57.4887 5.34468 57.9223 5.2814L61.7648 4.93687C61.9121 4.92356 62.053 4.87097 62.173 4.7846C62.293 4.69823 62.3875 4.58124 62.4469 4.44585L64.0242 0.848193C64.2199 0.454444 64.7801 0.454444 64.9746 0.847022Z" fill="#FDD835"/>
<path d="M64.8598 4.66045L64.5926 2.00967C64.582 1.86201 64.5516 1.60889 64.7883 1.60889C64.9758 1.60889 65.0777 1.99912 65.0777 1.99912L65.8793 4.12725C66.1816 4.93701 66.0574 5.21475 65.7656 5.37881C65.4305 5.56631 64.9359 5.41982 64.8598 4.66045Z" fill="#FFFF8D"/>
<path d="M68.1656 8.38018L70.4648 6.58603C70.5785 6.49111 70.7836 6.33994 70.6195 6.16767C70.4895 6.03174 70.1379 6.22744 70.1379 6.22744L68.1258 7.01377C67.5258 7.22119 67.1273 7.52822 67.0922 7.91494C67.0465 8.43057 67.5094 8.82783 68.1656 8.38018Z" fill="#F4B400"/>
<path d="M83.9746 0.847022L85.5519 4.44468C85.6113 4.58007 85.7059 4.69706 85.8258 4.78343C85.9458 4.8698 86.0868 4.92238 86.234 4.93569L90.0766 5.28022C90.5113 5.34351 90.6848 5.87671 90.3695 6.18374L87.475 8.61538C87.2406 8.81226 87.134 9.12163 87.1984 9.42046L88.0398 13.3591C88.1137 13.7916 87.6601 14.122 87.2711 13.9169L83.9172 11.9529C83.7907 11.8786 83.6467 11.8395 83.5 11.8395C83.3533 11.8395 83.2093 11.8786 83.0828 11.9529L79.7289 13.9158C79.341 14.1197 78.8863 13.7904 78.9602 13.358L79.8016 9.41929C79.8648 9.12046 79.7594 8.81108 79.525 8.61421L76.6293 6.18491C76.3152 5.87905 76.4887 5.34468 76.9223 5.2814L80.7648 4.93687C80.9121 4.92356 81.053 4.87097 81.173 4.7846C81.293 4.69823 81.3875 4.58124 81.4469 4.44585L83.0242 0.848193C83.2199 0.454444 83.7801 0.454444 83.9746 0.847022Z" fill="#FDD835"/>
<path d="M83.8598 4.66045L83.5926 2.00967C83.582 1.86201 83.5516 1.60889 83.7883 1.60889C83.9758 1.60889 84.0777 1.99912 84.0777 1.99912L84.8793 4.12725C85.1816 4.93701 85.0574 5.21475 84.7656 5.37881C84.4305 5.56631 83.9359 5.41982 83.8598 4.66045Z" fill="#FFFF8D"/>
<path d="M87.1656 8.38018L89.4648 6.58603C89.5785 6.49111 89.7836 6.33994 89.6195 6.16767C89.4895 6.03174 89.1379 6.22744 89.1379 6.22744L87.1258 7.01377C86.5258 7.22119 86.1273 7.52822 86.0922 7.91494C86.0465 8.43057 86.5094 8.82783 87.1656 8.38018Z" fill="#F4B400"/>
</svg>
